<svg viewBox="0 0 1400 880" xmlns="http://www.w3.org/2000/svg"
     font-family="-apple-system, BlinkMacSystemFont, 'Segoe UI', 'Helvetica Neue', Arial, sans-serif">

  <rect width="1400" height="880" fill="#ffffff"/>

  <defs>
    <marker id="ab" viewBox="0 0 10 10" refX="10" refY="5" markerWidth="7" markerHeight="7" orient="auto">
      <path d="M 0 0 L 10 5 L 0 10 z" fill="#2563eb"/>
    </marker>
    <marker id="ap" viewBox="0 0 10 10" refX="10" refY="5" markerWidth="6" markerHeight="6" orient="auto">
      <path d="M 0 0 L 10 5 L 0 10 z" fill="#7c3aed"/>
    </marker>
    <marker id="agn" viewBox="0 0 10 10" refX="10" refY="5" markerWidth="6" markerHeight="6" orient="auto">
      <path d="M 0 0 L 10 5 L 0 10 z" fill="#16a34a"/>
    </marker>
    <marker id="atc" viewBox="0 0 10 10" refX="10" refY="5" markerWidth="7" markerHeight="7" orient="auto">
      <path d="M 0 0 L 10 5 L 0 10 z" fill="#0891b2"/>
    </marker>
    <marker id="agl" viewBox="0 0 10 10" refX="10" refY="5" markerWidth="6" markerHeight="6" orient="auto">
      <path d="M 0 0 L 10 5 L 0 10 z" fill="#cbd5e1"/>
    </marker>
    <marker id="ao" viewBox="0 0 10 10" refX="10" refY="5" markerWidth="8" markerHeight="8" orient="auto">
      <path d="M 0 0 L 10 5 L 0 10 z" fill="#ea580c"/>
    </marker>
  </defs>

  <!-- Title -->
  <text x="700" y="36" text-anchor="middle" font-size="22" font-weight="700" fill="#0f172a">The bob ecosystem: a deterministic control plane for stochastic agents</text>
  <text x="700" y="60" text-anchor="middle" font-size="14" font-style="italic" fill="#64748b">vroom closes the loop. everything else is mechanism.</text>

  <!-- Tier labels -->
  <text x="148" y="142" text-anchor="end" font-size="11" font-weight="700" letter-spacing="1.2" fill="#94a3b8">CONTROL</text>
  <text x="148" y="290" text-anchor="end" font-size="11" font-weight="700" letter-spacing="1.2" fill="#94a3b8">AGENTS</text>
  <text x="148" y="430" text-anchor="end" font-size="11" font-weight="700" letter-spacing="1.2" fill="#94a3b8">PATTERNS</text>
  <text x="148" y="570" text-anchor="end" font-size="11" font-weight="700" letter-spacing="1.2" fill="#94a3b8">STATE &amp; EXECUTION</text>
  <text x="148" y="715" text-anchor="end" font-size="11" font-weight="700" letter-spacing="1.2" fill="#94a3b8">EVIDENCE</text>

  <!-- ====== CONTROL: vroom  x=560..840, y=90..190 ====== -->
  <rect x="560" y="90" width="280" height="100" rx="10" fill="#eff6ff" stroke="#2563eb" stroke-width="2"/>
  <text x="700" y="132" text-anchor="middle" font-size="32" font-weight="700" fill="#1e3a8a">vroom</text>
  <text x="700" y="158" text-anchor="middle" font-size="15" fill="#1e40af">recursive controller</text>
  <text x="700" y="180" text-anchor="middle" font-size="13" fill="#3b82f6">diagnose · repair · extend · dispatch</text>

  <!-- Dispatch arrows (blue) -->
  <path d="M 625 190 Q 510 215 320 240" stroke="#2563eb" stroke-width="2" fill="none" marker-end="url(#ab)"/>
  <path d="M 700 190 L 700 240" stroke="#2563eb" stroke-width="2" fill="none" marker-end="url(#ab)"/>
  <path d="M 775 190 Q 890 215 1080 240" stroke="#2563eb" stroke-width="2" fill="none" marker-end="url(#ab)"/>

  <!-- ====== AGENTS  y=242..342 ====== -->
  <rect x="200" y="242" width="240" height="100" rx="10" fill="#f5f3ff" stroke="#7c3aed" stroke-width="2"/>
  <text x="320" y="280" text-anchor="middle" font-size="24" font-weight="700" fill="#4c1d95">mcloop</text>
  <text x="320" y="305" text-anchor="middle" font-size="14" fill="#5b21b6">autonomous build loop</text>
  <text x="320" y="328" text-anchor="middle" font-size="12" fill="#7c3aed">drives editor agents through tasks</text>

  <rect x="580" y="242" width="240" height="100" rx="10" fill="#f5f3ff" stroke="#7c3aed" stroke-width="2"/>
  <text x="700" y="280" text-anchor="middle" font-size="24" font-weight="700" fill="#4c1d95">duplo</text>
  <text x="700" y="305" text-anchor="middle" font-size="14" fill="#5b21b6">spec → plan / re-author</text>
  <text x="700" y="328" text-anchor="middle" font-size="12" fill="#7c3aed">writes PLAN.md from sources</text>

  <rect x="960" y="242" width="240" height="100" rx="10" fill="#f5f3ff" stroke="#7c3aed" stroke-width="2"/>
  <text x="1080" y="280" text-anchor="middle" font-size="24" font-weight="700" fill="#4c1d95">bob-tools</text>
  <text x="1080" y="305" text-anchor="middle" font-size="14" fill="#5b21b6">planfile + ledger library</text>
  <text x="1080" y="328" text-anchor="middle" font-size="12" fill="#7c3aed">deterministic API · the foundation</text>

  <!-- mcloop -> duplo (re-author, purple) -->
  <path d="M 442 292 L 578 292" stroke="#7c3aed" stroke-width="2" fill="none" marker-end="url(#ap)"/>
  <text x="510" y="284" text-anchor="middle" font-size="11" font-style="italic" fill="#7c3aed">re-author</text>

  <!-- mcloop <-> PLAN.md  (bidirectional, two parallel green arrows) -->
  <!-- write: mcloop down to PLAN.md, at x=295 -->
  <path d="M 295 344 L 295 518" stroke="#16a34a" stroke-width="2" fill="none" marker-end="url(#agn)"/>
  <!-- read: PLAN.md up to mcloop, at x=325 -->
  <path d="M 325 518 L 325 344" stroke="#16a34a" stroke-width="2" fill="none" marker-end="url(#agn)"/>
  <text x="310" y="438" text-anchor="middle" font-size="11" font-style="italic" fill="#16a34a">read / write</text>

  <!-- duplo -> PLAN.md  (curve around orchestra, enters PLAN.md right edge) -->
  <!-- Q from (600,344) via (200,410) to (420,540). Verified clears orchestra (x>=460, y in [385,470]):
       at y=385 x=427 (33px); at y=470 x=345 (115px); min x=342 at y=454. -->
  <path d="M 600 344 Q 200 410 420 540" stroke="#16a34a" stroke-width="2" fill="none" marker-end="url(#agn)"/>

  <!-- ====== PATTERNS: orchestra  x=460..940, y=385..470 ====== -->
  <rect x="460" y="385" width="480" height="85" rx="10" fill="#ecfeff" stroke="#0891b2" stroke-width="2"/>
  <text x="700" y="418" text-anchor="middle" font-size="24" font-weight="700" fill="#155e75">orchestra</text>
  <text x="700" y="442" text-anchor="middle" font-size="14" fill="#0e7490">multi-model workflows</text>
  <text x="700" y="462" text-anchor="middle" font-size="12" fill="#0891b2">draft-then-adjudicate · council · anonymous reviewers</text>

  <!-- orchestra -> user software execution (teal, short vertical at x=850) -->
  <path d="M 850 472 L 850 518" stroke="#0891b2" stroke-width="2.5" fill="none" marker-end="url(#atc)"/>

  <!-- ====== STATE & EXECUTION  y=520..620 ====== -->
  <rect x="200" y="520" width="220" height="100" rx="10" fill="#fef3c7" stroke="#d97706" stroke-width="2"/>
  <text x="310" y="558" text-anchor="middle" font-size="22" font-weight="700" fill="#78350f">PLAN.md</text>
  <text x="310" y="583" text-anchor="middle" font-size="14" fill="#92400e">canonical plan</text>
  <text x="310" y="605" text-anchor="middle" font-size="12" fill="#b45309">tasks · phases · status</text>

  <rect x="470" y="520" width="220" height="100" rx="10" fill="#fef3c7" stroke="#d97706" stroke-width="2"/>
  <text x="580" y="558" text-anchor="middle" font-size="22" font-weight="700" fill="#78350f">BUGS.md</text>
  <text x="580" y="583" text-anchor="middle" font-size="14" fill="#92400e">deferred work</text>
  <text x="580" y="605" text-anchor="middle" font-size="12" fill="#b45309">bugs · ideas · followups</text>

  <rect x="740" y="520" width="380" height="100" rx="10" fill="#fef3c7" stroke="#d97706" stroke-width="2"/>
  <text x="930" y="558" text-anchor="middle" font-size="22" font-weight="700" fill="#78350f">user software execution</text>
  <text x="930" y="583" text-anchor="middle" font-size="14" fill="#92400e">run · test · build · verify</text>
  <text x="930" y="605" text-anchor="middle" font-size="12" fill="#b45309">ground truth</text>

  <!-- user software execution -> BUGS.md (green, horizontal left) -->
  <path d="M 738 570 L 692 570" stroke="#16a34a" stroke-width="2" fill="none" marker-end="url(#agn)"/>

  <!-- Evidence arrows (light grey) to log; log top y=670, gaps 2px -->
  <path d="M 310 622 L 480 668" stroke="#cbd5e1" stroke-width="1.5" fill="none" marker-end="url(#agl)"/>
  <path d="M 580 622 L 650 668" stroke="#cbd5e1" stroke-width="1.5" fill="none" marker-end="url(#agl)"/>
  <path d="M 930 622 L 820 668" stroke="#cbd5e1" stroke-width="1.5" fill="none" marker-end="url(#agl)"/>

  <!-- ====== EVIDENCE: the everything log  x=380..1020, y=670..745 ====== -->
  <rect x="380" y="670" width="640" height="75" rx="10" fill="#ffedd5" stroke="#ea580c" stroke-width="2"/>
  <text x="700" y="702" text-anchor="middle" font-size="22" font-weight="700" fill="#7c2d12">the everything log</text>
  <text x="700" y="728" text-anchor="middle" font-size="13" fill="#9a3412">every action · every commit · every outcome · tagged to PLAN.md</text>

  <!-- REFLECTION arc: log right (1020,707) -> vroom right (842,140), routed RIGHT exterior -->
  <path d="M 1020 707 C 1340 707, 1340 140, 842 140" stroke="#ea580c" stroke-width="3" fill="none" marker-end="url(#ao)"/>
  <text x="1352" y="420" font-size="13" font-style="italic" font-weight="600" fill="#ea580c" transform="rotate(-90 1352 420)" text-anchor="middle">reflection (the loop)</text>

  <!-- ====== LEGEND ====== -->
  <g font-size="12" fill="#475569">
    <line x1="180" y1="845" x2="214" y2="845" stroke="#2563eb" stroke-width="2"/>
    <text x="222" y="849">vroom dispatch</text>

    <line x1="340" y1="845" x2="374" y2="845" stroke="#7c3aed" stroke-width="2"/>
    <text x="382" y="849">re-author call</text>

    <line x1="490" y1="845" x2="524" y2="845" stroke="#16a34a" stroke-width="2"/>
    <text x="532" y="849">state read / write</text>

    <line x1="680" y1="845" x2="714" y2="845" stroke="#0891b2" stroke-width="2.5"/>
    <text x="722" y="849">execution</text>

    <line x1="820" y1="845" x2="854" y2="845" stroke="#cbd5e1" stroke-width="1.5"/>
    <text x="862" y="849">evidence emission</text>

    <line x1="1000" y1="845" x2="1034" y2="845" stroke="#ea580c" stroke-width="3"/>
    <text x="1042" y="849">reflection (the loop)</text>
  </g>

</svg>
